<?xml version="1.0" standalone="no"?><!DOCTYPE svg PUBLIC "-//W3C//DTD SVG 1.1//EN" "http://www.w3.org/Graphics/SVG/1.1/DTD/svg11.dtd"><svg t="1764296872736" class="icon" viewBox="0 0 1024 1024" version="1.1" xmlns="http://www.w3.org/2000/svg" p-id="5753" xmlns:xlink="http://www.w3.org/1999/xlink" width="200" height="200"><path d="M359.4 481.2c-5.1 0-10.2-2-14.1-5.9L242.9 373c-3.7-3.8-5.9-8.8-5.9-14.1V256.6c0-11 8.9-20 20-20h511.6c5.3 0 10.4 2.1 14.1 5.9 3.7 3.7 5.9 8.8 5.9 14.1v102.3c0 5.3-2.1 10.4-5.9 14.1L680.5 475.3c-7.8 7.8-20.5 7.8-28.3 0-7.8-7.8-7.8-20.5 0-28.3l96.5-96.5v-74H277v74l96.5 96.5c7.8 7.8 7.8 20.5 0 28.3-3.9 3.9-9 5.9-14.1 5.9z" fill="#1C1C1C" p-id="5754"></path><path d="M626.4 941.7h-227c-33.1 0-60-26.9-60-60V461.2c0-11 8.9-20 20-20s20 8.9 20 20v420.5c0 11 9 20 20 20h227c11 0 20-9 20-20V461.2c0-11 8.9-20 20-20s20 8.9 20 20v420.5c-0.1 33.1-27 60-60 60z" fill="#1C1C1C" p-id="5755"></path><path d="M512.9 583.5c-11 0-20-8.9-20-20V461.2c0-11 8.9-20 20-20 11 0 20 8.9 20 20v102.3c-0.1 11-9 20-20 20zM819.8 173.7H205.9c-11 0-20-8.9-20-20 0-11 8.9-20 20-20h613.9c11 0 20 8.9 20 20s-8.9 20-20 20z" fill="#1C1C1C" p-id="5756"></path></svg>