<svg viewBox="0 0 1024 1024" xmlns="http://www.w3.org/2000/svg">
  <path
    d="M512 725.333a42.667 42.667 0 0 1-42.667-42.666V384a42.667 42.667 0 0 1 85.334 0v298.667A42.667 42.667 0 0 1 512 725.333z"
    fill="currentColor"
  />
  <path
    d="M512 1024a42.667 42.667 0 0 1-42.667-42.667 128 128 0 0 0-128-128H128a128 128 0 0 1-128-128V128A128 128 0 0 1 128 0h213.333a213.333 213.333 0 0 1 170.667 85.333A213.333 213.333 0 0 1 682.667 0H896a128 128 0 0 1 128 128v597.333a128 128 0 0 1-128 128H682.667a128 128 0 0 0-128 128A42.667 42.667 0 0 1 512 1024zM128 85.333a42.667 42.667 0 0 0-42.667 42.667v597.333a42.667 42.667 0 0 0 42.667 42.667h213.333a213.333 213.333 0 0 1 170.667 85.333 213.333 213.333 0 0 1 170.667-85.333H896a42.667 42.667 0 0 0 42.667-42.667V128A42.667 42.667 0 0 0 896 85.333H682.667a128 128 0 0 0-128 128 42.667 42.667 0 0 1-85.334 0 128 128 0 0 0-128-128z"
    fill="currentColor"
  />
</svg>