<?xml version="1.0" encoding="UTF-8"?>
<svg viewBox="0 0 1024 1024" version="1.1" xmlns="http://www.w3.org/2000/svg">
  <defs>
    <style type="text/css"></style>
  </defs>
  
  <!-- ???: (512, 512), ????: 400, ????: 200 -->
  <!-- ??8????????45????: A(912,512), B(794.84,229.16), C(512,112), D(229.16,229.16), E(112,512), F(229.16,794.84), G(512,912), H(794.84,794.84) -->
  <!-- ??8????????45????: MA(712,512), MB(653.42,370.58), MC(512,312), MD(370.58,370.58), ME(312,512), MF(370.58,653.42), MG(512,712), MH(653.42,653.42) -->
  
  <!-- ??1: A?B (0°-45°), ?? #FF0000 -->
  <!-- ??: A(912,512) -> ????MA(712,512) -> ??????O(512,512) -> ????MB(653.42,370.58) -> ????B(794.84,229.16) -> ?????A(912,512) -->
  <path d="M 912 512 A 100 200 0 0 1 712 512 A 100 200 0 0 0 512 512 A 100 200 0 0 1 653.42 370.58 A 100 200 0 0 0 794.84 229.16 A 400 400 0 0 1 912 512 Z" fill="#FF0000"/>
  
  <!-- ??2: B?C (45°-90°), ?? #FF7F00 -->
  <path d="M 794.84 229.16 A 100 200 0 0 1 653.42 370.58 A 100 200 0 0 0 512 512 A 100 200 0 0 1 512 312 A 100 200 0 0 0 512 112 A 400 400 0 0 1 794.84 229.16 Z" fill="#FF7F00"/>
  
  <!-- ??3: C?D (90°-135°), ?? #FFFF00 -->
  <path d="M 512 112 A 100 200 0 0 1 512 312 A 100 200 0 0 0 512 512 A 100 200 0 0 1 370.58 370.58 A 100 200 0 0 0 229.16 229.16 A 400 400 0 0 1 512 112 Z" fill="#FFFF00"/>
  
  <!-- ??4: D?E (135°-180°), ?? #00FF00 -->
  <path d="M 229.16 229.16 A 100 200 0 0 1 370.58 370.58 A 100 200 0 0 0 512 512 A 100 200 0 0 1 312 512 A 100 200 0 0 0 112 512 A 400 400 0 0 1 229.16 229.16 Z" fill="#00FF00"/>
  
  <!-- ??5: E?F (180°-225°), ?? #00FFFF -->
  <path d="M 112 512 A 100 200 0 0 1 312 512 A 100 200 0 0 0 512 512 A 100 200 0 0 1 370.58 653.42 A 100 200 0 0 0 229.16 794.84 A 400 400 0 0 1 112 512 Z" fill="#00FFFF"/>
  
  <!-- ??6: F?G (225°-270°), ?? #0000FF -->
  <path d="M 229.16 794.84 A 100 200 0 0 1 370.58 653.42 A 100 200 0 0 0 512 512 A 100 200 0 0 1 512 712 A 100 200 0 0 0 512 912 A 400 400 0 0 1 229.16 794.84 Z" fill="#0000FF"/>
  
  <!-- ??7: G?H (270°-315°), ?? #7F00FF -->
  <path d="M 512 912 A 100 200 0 0 1 512 712 A 100 200 0 0 0 512 512 A 100 200 0 0 1 653.42 653.42 A 100 200 0 0 0 794.84 794.84 A 400 400 0 0 1 512 912 Z" fill="#7F00FF"/>
  
  <!-- ??8: H?A (315°-360°), ?? #FF00FF -->
  <path d="M 794.84 794.84 A 100 200 0 0 1 653.42 653.42 A 100 200 0 0 0 512 512 A 100 200 0 0 1 712 512 A 100 200 0 0 0 912 512 A 400 400 0 0 1 794.84 794.84 Z" fill="#FF00FF"/>
  
  <!-- ???????????????? -->
  <circle cx="512" cy="512" r="400" fill="none" stroke="none" stroke-width="0"/>
  
</svg>