<svg viewBox="0 0 24 24" fill="none" xmlns="http://www.w3.org/2000/svg">
  <path
    fill="currentColor"
    d="M12 3.25a.75.75 0 0 1 .75.75v7.19l2.22-2.22a.75.75 0 0 1 1.06 1.06l-3.5 3.5a.75.75 0 0 1-1.06 0l-3.5-3.5a.75.75 0 1 1 1.06-1.06L11.25 11.2V4a.75.75 0 0 1 .75-.75Zm-6 10.5a.75.75 0 1 1 0 1.5h-.5a1 1 0 0 0-1 1V18a2 2 0 0 0 2 2h13a2 2 0 0 0 2-2v-1.75a1 1 0 0 0-1-1h-.5a.75.75 0 0 1 0-1.5h.5a2.5 2.5 0 0 1 2.5 2.5V18a3.5 3.5 0 0 1-3.5 3.5h-13A3.5 3.5 0 0 1 2.5 18v-1.75a2.5 2.5 0 0 1 2.5-2.5h1Z"
  />
</svg>

