<?xml version="1.0" standalone="no"?><!DOCTYPE svg PUBLIC "-//W3C//DTD SVG 1.1//EN" "http://www.w3.org/Graphics/SVG/1.1/DTD/svg11.dtd"><svg t="1762768734264" class="icon" viewBox="0 0 1024 1024" version="1.1" xmlns="http://www.w3.org/2000/svg" p-id="29212" xmlns:xlink="http://www.w3.org/1999/xlink" width="200" height="200"><path d="M672 32a64 64 0 0 1 64 64v81.856a64 64 0 0 1-43.776 60.736L640 256l32 288 108.544 21.696A64 64 0 0 1 832 628.48v107.52a64 64 0 0 1-64 64H544v192a32 32 0 1 1-64 0v-192H256a64 64 0 0 1-64-64V628.48a64 64 0 0 1 51.456-62.784L352 544 384 256l-52.224-17.408a64 64 0 0 1-43.776-60.736V96a64 64 0 0 1 64-64h320z m0 64h-320v81.856l101.312 33.792-42.88 385.92L256 628.48v107.52h512V628.48l-154.432-30.912-42.88-385.92 101.312-33.792V96z" p-id="29213"></path></svg>