<?xml version="1.0" standalone="no"?><!DOCTYPE svg PUBLIC "-//W3C//DTD SVG 1.1//EN" "http://www.w3.org/Graphics/SVG/1.1/DTD/svg11.dtd"><svg t="1762912726376" class="icon" viewBox="0 0 20 20" version="1.1" xmlns="http://www.w3.org/2000/svg" p-id="80253" xmlns:xlink="http://www.w3.org/1999/xlink"><g transform="scale(0.01953125)"><path d="M793.562409 372.45318A186.22659 186.22659 0 1 1 981.270908 186.22659a187.214529 187.214529 0 0 1-187.708499 186.22659zM793.562409 49.396973A136.829616 136.829616 0 1 0 931.873935 186.22659 137.570571 137.570571 0 0 0 793.562409 49.396973zM230.436912 691.557628a186.22659 186.22659 0 1 1 187.708499-186.22659A187.214529 187.214529 0 0 1 230.436912 691.557628z m0-323.056206a136.829616 136.829616 0 1 0 138.311526 136.829616 137.817556 137.817556 0 0 0-138.311526-136.829616zM766.641058 1023.999259a186.22659 186.22659 0 1 1 187.708499-186.22659 187.214529 187.214529 0 0 1-187.708499 186.22659z m0-323.056206a136.829616 136.829616 0 1 0 138.311526 136.829616 137.817556 137.817556 0 0 0-138.311526-136.829616z" fill="currentColor" p-id="80254"></path><path d="M344.173443 403.1287L641.666716 232.264569l24.599692 42.851874-297.493272 170.839433zM330.712768 620.747067l24.624391-42.851875 297.493273 170.864131-24.599693 42.827176z" fill="currentColor" p-id="80255"></path></g></svg>

