<svg viewBox="0 0 1024 1024" xmlns="http://www.w3.org/2000/svg" fill="currentColor">
  <path
    d="M878.933333 857.6H179.2a8.533333 8.533333 0 0 0-8.533333 8.533333v64c0 4.693333 3.84 8.533333 8.533333 8.533334h699.733333a8.533333 8.533333 0 0 0 8.533334-8.533334v-64a8.533333 8.533333 0 0 0-8.533334-8.533333z m0-772.266667H179.2a8.533333 8.533333 0 0 0-8.533333 8.533334v64c0 4.693333 3.84 8.533333 8.533333 8.533333h699.733333a8.533333 8.533333 0 0 0 8.533334-8.533333V93.866667a8.533333 8.533333 0 0 0-8.533334-8.533334z m-244.48 283.733334c6.4 0 10.026667-7.466667 6.101334-12.501334l-107.52-136.106666a7.594667 7.594667 0 0 0-12.074667 0l-107.52 136.106666a7.68 7.68 0 0 0 6.101333 12.501334H490.666667v285.866666H423.68a7.722667 7.722667 0 0 0-6.101333 12.501334l107.52 135.978666a7.594667 7.594667 0 0 0 12.074666 0l107.52-135.978666a7.68 7.68 0 0 0-6.101333-12.501334H567.466667v-285.866666h66.986666z"
  />
</svg>

