<?xml version="1.0" standalone="no"?><!DOCTYPE svg PUBLIC "-//W3C//DTD SVG 1.1//EN" "http://www.w3.org/Graphics/SVG/1.1/DTD/svg11.dtd"><svg t="1763121782970" class="icon" viewBox="0 0 1024 1024" version="1.1" xmlns="http://www.w3.org/2000/svg" p-id="84504" xmlns:xlink="http://www.w3.org/1999/xlink" width="200" height="200"><path d="M342.308571 77.238857l413.988572 746.130286-74.605714 41.398857-413.988572-746.057143 74.605714-41.472z m-17.115428 200.118857l-47.396572-85.357714H256a213.357714 213.357714 0 0 0-159.963429 354.450286 42.642286 42.642286 0 1 0 63.926858-56.466286A128 128 0 0 1 256 277.357714h69.193143zM645.12 524.068571a128 128 0 0 0-47.835429-246.710857H483.84l-47.396571-85.357714h160.914285a213.357714 213.357714 0 0 1 69.485715 415.085714l-42.496-76.580571a128.292571 128.292571 0 0 0 20.845714-6.436572zM514.633143 618.642286l-47.396572-85.284572H384a42.642286 42.642286 0 1 0 0 85.284572h130.633143z m-301.348572-42.642286c0-100.352 69.339429-184.466286 162.669715-207.286857l44.032 79.433143a128.585143 128.585143 0 0 0-12.434286 1.243428 128 128 0 0 0 19.090286 254.537143h135.314285l47.396572 85.430857H426.642286a213.357714 213.357714 0 0 1-213.284572-213.357714z m554.715429 213.357714l-47.323429-85.357714h47.323429a128 128 0 0 0 96.036571-212.626286 42.642286 42.642286 0 1 1 63.926858-56.539428 213.357714 213.357714 0 0 1-159.963429 354.450285zM531.236571 362.642286l47.323429 85.357714h61.44a42.642286 42.642286 0 0 0 0-85.357714H531.236571z" fill="currentColor" p-id="84505"></path></svg>