<?xml version="1.0" standalone="no"?><!DOCTYPE svg PUBLIC "-//W3C//DTD SVG 1.1//EN" "http://www.w3.org/Graphics/SVG/1.1/DTD/svg11.dtd"><svg t="1763119953815" class="icon" viewBox="0 0 1024 1024" version="1.1" xmlns="http://www.w3.org/2000/svg" p-id="82371" xmlns:xlink="http://www.w3.org/1999/xlink" width="200" height="200"><path d="M119.722667 545.536l1.962666 1.792 74.154667 74.154667a15.189333 15.189333 0 0 1-8.96 25.6h-57.514667a288.938667 288.938667 0 0 0 282.453334 228.010666 30.378667 30.378667 0 1 1 0 60.842667A349.866667 349.866667 0 0 1 67.413333 647.082667H15.189333a15.189333 15.189333 0 0 1-12.032-24.490667l1.28-1.450667 74.154667-74.154666a30.378667 30.378667 0 0 1 41.045333-1.792z m824.149333-4.522667a30.378667 30.378667 0 0 1 30.378667 30.378667v334.677333a30.378667 30.378667 0 0 1-30.378667 30.378667H518.229333a30.378667 30.378667 0 0 1-30.378666-30.378667V571.648a30.378667 30.378667 0 0 1 30.378666-30.378667h425.642667z m-319.232 60.842667h-60.842667a15.189333 15.189333 0 0 0-15.104 13.397333v244.992a15.189333 15.189333 0 0 0 13.397334 15.104h62.549333a15.189333 15.189333 0 0 0 15.104-13.397333V616.96a15.189333 15.189333 0 0 0-15.189333-15.189333z m136.533333 0h-60.842666a15.189333 15.189333 0 0 0-15.104 13.397333v244.992a15.189333 15.189333 0 0 0 13.397333 15.104h62.549333a15.189333 15.189333 0 0 0 15.104-13.397333V616.96a15.189333 15.189333 0 0 0-15.189333-15.189333z m136.533334 0h-60.842667a15.189333 15.189333 0 0 0-15.104 13.397333v244.992a15.189333 15.189333 0 0 0 13.397333 15.104h62.549334a15.189333 15.189333 0 0 0 15.104-13.397333V616.96a15.189333 15.189333 0 0 0-15.189334-15.189333zM563.285333 84.992a349.866667 349.866667 0 0 1 344.405334 288.853333h52.138666a15.189333 15.189333 0 0 1 10.752 25.6l-74.154666 74.154667a30.378667 30.378667 0 0 1-42.666667 0l-74.154667-74.154667a15.189333 15.189333 0 0 1 10.752-25.6h55.722667a288.938667 288.938667 0 0 0-282.453333-228.010666 30.378667 30.378667 0 0 1 0-60.842667z m-106.410666 0a30.378667 30.378667 0 0 1 30.378666 30.378667v334.421333a30.378667 30.378667 0 0 1-30.378666 30.378667H31.744a30.378667 30.378667 0 0 1-30.378667-30.378667V115.370667A30.378667 30.378667 0 0 1 31.744 84.992zM411.306667 358.656H77.312a15.189333 15.189333 0 0 0-15.104 13.397333v32.170667a15.189333 15.189333 0 0 0 13.397333 15.104h336.213334a15.189333 15.189333 0 0 0 15.104-13.397333V373.76a15.189333 15.189333 0 0 0-15.189334-15.189333z m0-106.410667H77.312a15.189333 15.189333 0 0 0-15.104 13.397334v32.170666a15.189333 15.189333 0 0 0 13.397333 15.104h336.213334a15.189333 15.189333 0 0 0 15.104-13.397333v-32.170667a15.189333 15.189333 0 0 0-15.104-15.189333z m0-106.410666H77.312a15.189333 15.189333 0 0 0-15.104 13.397333v32.170667a15.189333 15.189333 0 0 0 13.397333 15.104h336.213334a15.189333 15.189333 0 0 0 15.104-13.397334v-32.170666a15.189333 15.189333 0 0 0-15.104-15.189334z" p-id="82372"></path></svg>