<?xml version="1.0" standalone="no"?><!DOCTYPE svg PUBLIC "-//W3C//DTD SVG 1.1//EN" "http://www.w3.org/Graphics/SVG/1.1/DTD/svg11.dtd"><svg t="1765100823434" class="icon" viewBox="0 0 1024 1024" version="1.1" xmlns="http://www.w3.org/2000/svg" p-id="5169" xmlns:xlink="http://www.w3.org/1999/xlink" width="200" height="200"><path d="M463.872 864.256H224.256a64 64 0 0 1-64-64v-576a64 64 0 0 1 64-64h448a64 64 0 0 1 64 64v176.128a48.064 48.064 0 1 0 96.256 0V192a128 128 0 0 0-128-128h-512a128 128 0 0 0-128 128v640a128 128 0 0 0 128 128h271.872a48.064 48.064 0 0 0 48.128-48.128 48.064 48.064 0 0 0-48.64-47.616z" p-id="5170"></path><path d="M671.744 368.128A48.064 48.064 0 0 0 623.616 320H271.872a48.064 48.064 0 1 0 0 96.256h352.256a47.616 47.616 0 0 0 47.616-48.128zM271.872 480.256a48.064 48.064 0 1 0 0 96.256h159.744a48.064 48.064 0 1 0 0-96.256H271.872zM524.8 790.656l54.592-54.656 80 80V576h96v240l80-80 54.656 54.656-160 160a32 32 0 0 1-45.248 0l-160-160z" p-id="5171"></path></svg>