<?xml version="1.0" standalone="no"?><!DOCTYPE svg PUBLIC "-//W3C//DTD SVG 1.1//EN" "http://www.w3.org/Graphics/SVG/1.1/DTD/svg11.dtd"><svg t="1762916071736" class="icon" viewBox="0 0 20 20" version="1.1" xmlns="http://www.w3.org/2000/svg" p-id="81340" xmlns:xlink="http://www.w3.org/1999/xlink"><g transform="scale(0.01953125)"><path d="M981.333333 170.666667a42.666667 42.666667 0 1 1 0 85.333333h-42.666666v704a64 64 0 0 1-57.856 63.701333L874.666667 1024h-725.333334A64 64 0 0 1 85.333333 960V256H42.666667a42.666667 42.666667 0 1 1 0-85.333333h170.666666V42.666667a42.666667 42.666667 0 0 1 37.674667-42.368L256 0h512a42.666667 42.666667 0 0 1 42.666667 42.666667v128h170.666666z m-128 85.333333H170.666667v682.666667h682.666666V256z m-128-170.666667H298.666667v85.333334h426.666666V85.333333z" fill="currentColor" p-id="81341"></path><path d="M384 384a42.666667 42.666667 0 0 1 42.666667 42.666667v298.666666a42.666667 42.666667 0 1 1-85.333334 0v-298.666666a42.666667 42.666667 0 0 1 42.666667-42.666667zM640 384a42.666667 42.666667 0 0 1 42.666667 42.666667v298.666666a42.666667 42.666667 0 1 1-85.333334 0v-298.666666a42.666667 42.666667 0 0 1 42.666667-42.666667z" fill="currentColor" p-id="81342"></path></g></svg>

