<?xml version="1.0" standalone="no"?><!DOCTYPE svg PUBLIC "-//W3C//DTD SVG 1.1//EN" "http://www.w3.org/Graphics/SVG/1.1/DTD/svg11.dtd"><svg t="1763119976353" class="icon" viewBox="0 0 1024 1024" version="1.1" xmlns="http://www.w3.org/2000/svg" p-id="83352" xmlns:xlink="http://www.w3.org/1999/xlink" width="200" height="200"><path d="M235.938671 982.450054a208.859842 208.859842 0 0 1-153.671364-63.990088 216.392752 216.392752 0 0 1 0-307.263435l217.661452-217.740747 71.364411 71.364411-217.661452 217.740747a118.623509 118.623509 0 0 0-33.303392 81.910484c0.555057 30.448815 12.449125 59.708224 33.303392 81.831191 44.087347 45.276754 116.561871 46.307573 161.838624 2.140933l2.061639-2.140933 217.661452-217.582159 71.364411 71.364411-217.740746 217.582159a212.745238 212.745238 0 0 1-152.878427 64.783026z m460.9348-371.332817l-71.364411-71.285117 235.581849-235.581849c45.276754-44.087347 46.228279-116.561871 2.140932-161.838625l-2.140932-2.061638a118.385628 118.385628 0 0 0-81.831191-33.303392 122.905374 122.905374 0 0 0-81.910485 33.303392L479.608487 357.932167l-71.364411-71.364411L625.984823 68.906303a216.392752 216.392752 0 0 1 305.994734-1.2687l1.268701 1.2687a218.137215 218.137215 0 0 1 0 307.263435l-235.661143 235.502556-0.713644-0.555057z" fill="currentColor" p-id="83353"></path><path d="M380.887719 0h79.293789v146.297042h-79.293789zM155.931237 45.118166l146.376336 146.297042-56.060709 56.140003-146.376336-146.376335zM54.831656 326.056063h146.297042v79.29379H54.831656z" fill="currentColor" p-id="83354"></path><path d="M679.508131 1024h-79.29379v-146.376336h79.29379zM904.464612 978.881834L758.088276 832.584792l56.06071-56.06071 146.297042 146.376336zM1005.722781 697.785349h-146.376335v-79.293789h146.376335z" fill="currentColor" p-id="83355"></path></svg>