<?xml version="1.0" standalone="no"?><!DOCTYPE svg PUBLIC "-//W3C//DTD SVG 1.1//EN" "http://www.w3.org/Graphics/SVG/1.1/DTD/svg11.dtd"><svg t="1762780680283" class="icon" viewBox="0 0 1024 1024" version="1.1" xmlns="http://www.w3.org/2000/svg" p-id="77306" xmlns:xlink="http://www.w3.org/1999/xlink" width="200" height="200"><path d="M892.3 695.8c-19.9 0-36 16.1-36 36v155.6l-686 1.2V731.8c0-19.9-16.1-36-36-36s-36 16.1-36 36v192.9c0 9.6 3.8 18.7 10.6 25.5 6.8 6.7 15.9 10.5 25.4 10.5h0.1l758-1.3c19.9 0 35.9-16.1 35.9-36V731.8c0-19.9-16.1-36-36-36z" fill="#333333" p-id="77307"></path><path d="M344.2 312.2L475.3 187v512.8l1.7 33.8c1 19.2 16.8 34.2 35.9 34.2h0.9c19.5-0.5 35.1-16.5 35.1-36V187L680 312.2c14.4 13.7 37.2 13.2 50.9-1.2 13.7-14.4 13.2-37.2-1.2-50.9l-186-177.8c-3.8-6.2-9.5-11.3-16.5-14.3-4.8-2.1-10-3-15-2.9-5.1-0.1-10.2 0.8-15 2.9-7 3-12.7 8-16.5 14.3L294.5 260.1c-14.4 13.7-14.9 36.5-1.2 50.9 13.7 14.4 36.5 14.9 50.9 1.2z" fill="#333333" p-id="77308"></path></svg>