<?xml version="1.0" standalone="no"?><!DOCTYPE svg PUBLIC "-//W3C//DTD SVG 1.1//EN" "http://www.w3.org/Graphics/SVG/1.1/DTD/svg11.dtd"><svg t="1765845409605" class="icon" viewBox="0 0 1024 1024" version="1.1" xmlns="http://www.w3.org/2000/svg" p-id="10338" xmlns:xlink="http://www.w3.org/1999/xlink" width="200" height="200"><path d="M929.16308375 96.97866406L94.95107937 96.97866406c-33.30861656 0-60.39393281 27.08531625-60.39393281 60.39393281l0 573.99706969c0 33.27791719 27.11505563 60.39201375 60.39393281 60.39201375l45.37723407 0c2.74853625 8.48065031 7.78224375 16.87303969 15.33712125 24.71572313 1.84962563 1.91102437 4.22305688 3.29920313 6.79891031 3.99185343 75.64663125 19.59279563 94.42877719 43.95931594 98.8830375 56.72154282 4.94928469 14.15136563-3.2406825 25.52253562-3.76065 26.217105-4.86294281 6.27990188-3.76256906 15.28051969 2.43099187 20.20102406 6.27894281 5.00588625 15.33712125 3.96211406 20.3430075-2.34656906 6.85647094-8.68115438 16.37897531-29.5460475 8.56699125-52.92827438-10.73608125-32.00486062-49.42760812-57.18203063-114.97324781-74.77746094-5.44143094-6.47848781-7.08959344-11.80575562-7.08959344-16.14681281 0-0.02878031 0-0.05852062 0-0.08634187 0.02782125-5.7858375 3.67430906-11.6042925 10.243935-16.64183719 0.20242313-0.14006531 0.43362563-0.287805 0.6082275-0.43266656 1.87936594-1.38913781 3.99185344-2.71975594 6.30868313-3.93333282 0.54874781-0.31850438 1.09845562-0.58040625 1.6481625-0.84039 2.77827656-1.38817875 5.95947937-2.45977219 9.11382094-3.58892625 5.03754469-1.21549594 14.12450344-2.83487812 28.56271406-2.83487812 25.32203156 0 54.86807906 4.978065 87.77185031 14.67133312 5.49707344 2.40125156 10.995105 4.89172313 16.55357625 7.8426825 1.67502469 0.89795156 3.35484562 1.85346375 5.0337075 2.83487813 6.97543031 3.90838969 13.94798344 8.19092625 20.98097531 13.02221062 0.6082275 0.43554469 1.18671562 0.72430875 1.79494313 1.15697532 110.66193094 77.70059906 98.30263125 116.91209344 98.38897219 116.91209343l0 0c-3.73186969 7.06177219-1.039935 15.83118656 6.02087812 19.56209719 2.14030875 1.12915406 4.45521937 1.67982094 6.74230875 1.67982094 5.20830844 0 10.21515375-2.80705687 12.79100813-7.72756031 4.54252031-8.59385344 19.67721844-51.94302281-72.1133475-127.27115063L663.3608975 791.73482c-91.82126531 75.35594906-76.71342844 118.70319938-72.17090812 127.27115063 2.66123531 5.00876438 7.90024406 8.01536531 13.28411343 8.01536531 2.16717094 0 4.39573969-0.5199675 6.47848782-1.62034125 7.06273125-3.73378875 9.95613-12.09547969 6.22234125-19.15629188-0.14486156-0.37702406-13.13733281-39.58755938 98.07334593-117.66518343 7.7544225-5.44047094 15.45224344-10.12881281 23.15102344-14.41038938 1.39009781-0.77995125 2.80705687-1.59060187 4.19523563-2.34369094 5.78679656-3.06608156 11.49108937-5.67071531 17.22032437-8.15926781 32.78673094-9.63570656 62.27329875-14.61377156 87.53680969-14.61377156 14.46795094 0 23.52804844 1.65008156 28.5061125 2.80705687 3.18120281 1.128195 6.45450375 2.22856875 9.20208094 3.64552875 0.54970688 0.26190281 1.039935 0.52092656 1.56373968 0.75213 2.42907281 1.30087781 4.71712219 2.69193469 6.65308875 4.19619469 0.09017906 0.05947969 0.17748 0.11608125 0.26094282 0.17364188 6.62814656 5.03562562 10.27271531 10.88190188 10.30245468 16.69747875 0 0.08634187 0.05660156 0.14486156 0.05660157 0.23120343-0.05660156 4.28349562-1.76328469 9.579105-7.11645469 16.00195032-65.57538 17.59543031-104.2371675 42.77260031-114.97420781 74.77746093-7.8426825 23.38222688 1.70860125 44.24712 8.56603218 52.92827438 4.978065 6.30868312 14.06406469 7.323675 20.31518625 2.34656906 6.27990188-4.95024375 7.322715-14.03432438 2.34369094-20.31518625-0.08634187-0.11704031-8.5948125-11.45943094-3.78943031-25.75661719 4.28253656-12.84856875 22.88912156-37.35994969 98.99815969-57.09472968 2.60367469-0.66578906 4.94832469-2.05492688 6.79986937-3.99473157 7.58173969-7.87050375 12.64806469-16.32045469 15.36686156-24.85770656 32.67064969-0.72622781 59.03453437-27.40477969 59.03453438-60.25098937L989.44093531 157.37259781C989.53015437 124.06398031 962.44196 96.97866406 929.16308375 96.97866406L929.16308375 96.97866406zM188.19314094 374.64224844L316.96855156 374.64224844c5.43759375 19.12847062 14.72889375 67.74446906-7.06177218 129.12461344l-1.56086157 4.28253656c-10.56243844 29.37336469-23.70169031 65.92170469 5.49611344 141.45321469 17.85541406 46.09866469 6.85743094 72.34455-0.63604875 83.51521687 0-0.02973937-0.02973937-0.02973937-0.05947969-0.02973937-1.30183781-0.51900844-2.57393531-0.98237438-3.84891-1.47452063-17.27404781-6.51110531-33.94370625-10.61904-49.71637218-12.76126781-1.35939844-0.17556094-2.71879687-0.37702406-4.07819532-0.54970688-7.41001594-0.83943094-14.58595031-1.30183781-21.53260125-1.33157718-1.56086156 0-3.06608156 0.08826-4.62982125 0.14486156-5.75897531 0.14198344-11.34238969 0.54874781-16.66678031 1.21549594-1.42079625 0.17556094-2.86845563 0.28972312-4.25759344 0.49118718-1.128195 0.17556094-2.17004906 0.46240687-3.26850375 0.63796782 5.03466656-23.96359312 8.45091-59.38181906-7.32079687-83.08255032-16.89990187-25.52349469-20.83611281-104.12300437-0.29068313-163.47508406C206.36609937 447.22184 195.71636 401.03587344 188.19314094 374.64224844L188.19314094 374.64224844zM756.94928469 649.50261313c29.22850312-75.58811156 16.03169063-112.13837062 5.44047093-141.54051563l-1.50330093-4.19523562c-21.791625-61.40700562-12.47346281-109.99518281-7.03299188-129.12461344l128.77541063 0c-7.55199937 26.393625-18.20077969 72.57863156-9.3469425 98.15968781 20.48786906 59.41155937 16.5813975 138.03793031-0.28972313 163.44630375-15.79952813 23.7285525-12.38424375 59.11895719-7.35053625 83.11133062-1.12915406-0.23120344-2.16908906-0.49118719-3.32606531-0.63796781-0.92673187-0.14486156-1.91102437-0.20146312-2.89531688-0.34632562-5.99017875-0.81065062-12.29982094-1.24427625-18.84066562-1.38913782-0.86629219-0.02686219-1.703805-0.08634187-2.57393531-0.08634187-24.19479563-0.11704031-51.56791688 4.68930094-80.39157469 16.11803156C750.08993469 721.90664375 739.09482969 695.62814 756.94928469 649.50261313L756.94928469 649.50261313zM960.59041531 731.3696675c0 16.92772312-13.42705687 30.73180406-30.18401531 31.39951125-1.93980469-5.55847125-5.00684531-10.94138156-9.28938188-15.94726781-0.6082275-0.66482906-1.33253625-1.30279688-1.93884562-1.94076375-0.22928438-0.25806469-0.49310531-0.46240687-0.69360938-0.69265031-2.14126781-2.2007475-4.54347937-4.28349562-7.17785343-6.28086188-0.80969062-0.63604875-1.67694281-1.27113844-2.54515407-1.87936594-2.05492688-1.4486175-4.28349562-2.80801594-6.62718656-4.10985375-0.9842925-0.57944719-1.82372344-1.24523531-2.8655775-1.792065-0.31850438-0.17556094-0.72239062-0.26286188-1.04185406-0.43650375-0.02686219-0.02590219-0.05756063-0.02590219-0.08538188-0.05852062-5.49995063-18.52120219-13.66017844-58.45508719-1.01403281-77.38113563 24.07679625-36.31521844 25.72591781-124.57825594 3.5294475-188.93909906-5.99113781-17.33544656 3.32894344-59.96030719 12.18469875-88.69762313l5.67071531 0c7.98850406 0 14.46891-6.48136594 14.46891-14.46795093 0-7.98754406-6.48040594-14.46986906-14.46891-14.46986907l-16.23315375 0L743.46370719 345.67564813l-12.50128407-1e-8c-7.98562594 0-14.46986906 6.482325-14.46986906 14.46986907 0 5.61507281 3.27234094 10.33027594 7.92998344 12.73152843-6.51110531 25.7853975-13.4846175 76.68848531 9.17330062 140.52456469l1.56469876 4.37271563c9.43328437 26.13076313 20.11180406 55.7631525-5.20926844 121.22149218-20.54734875 53.04339656-9.78248719 87.62507062 1.15505718 106.14627282-9.63570656 5.09606531-19.38749531 10.93850344-29.17094249 17.59543031l-0.02686219 0.03165844L369.08713531 762.76917875c-0.92577188-0.63796781-1.85442281-1.0735125-2.80705687-1.70956125-7.92902437-5.32534969-15.85900781-10.10099156-23.70169032-14.35378781-0.95359313-0.5199675-1.90910531-1.15697531-2.89147968-1.67886188 10.93850344-18.54998344 21.67266563-53.10095719 1.15793531-106.05993094-25.32203156-65.34129844-14.64447094-94.94874469-5.26970719-121.10541093l1.59348-4.42931719c22.65791812-63.83991656 15.686325-114.71326406 9.17330063-140.49674344 4.68834094-2.40317063 7.95876375-7.11837375 7.95876375-12.7324875 0-7.98850406-6.48328406-14.46986906-14.46986907-14.46986906L327.35830719 345.73320875 168.54182469 345.73320875l-16.23315375 0c-7.98754406 0-14.46986906 6.48136594-14.46986907 14.46986906 0 7.98754406 6.482325 14.46986906 14.46986907 14.46986906l5.66975625 0c8.827935 28.73539781 18.17295844 71.36217656 12.18469875 88.69570407-21.8472675 63.1741275-20.16840562 153.19949063 3.53136562 188.93909906 12.53006438 18.84066562 4.42835719 58.8599325-1.04185406 77.38209469-0.34728469 0.20530125-0.80969062 0.31850438-1.15697531 0.49310531-1.15793531 0.6082275-2.08274813 1.33061812-3.15434157 1.93884563-2.17004906 1.24235812-4.25279625 2.4885525-6.19356093 3.85082906-0.95551219 0.66387-1.88128406 1.35843937-2.80705688 2.05396781-2.51733281 1.9359675-4.8341625 3.96211406-6.91499156 6.10434094-0.28972312 0.287805-0.6082275 0.57944719-0.89891063 0.86821125-0.60534937 0.60630938-1.32965812 1.21549594-1.880325 1.85346375-1.76616281 2.05396781-3.15530063 4.22401594-4.54347937 6.36528469-0.02686219 0.08634187-0.08634187 0.14486156-0.14486156 0.20146312-1.90910531 3.06799969-3.5294475 6.22234125-4.6566825 9.4352025L94.92325812 762.85456062c-17.36518594 0-31.45803187-14.09380406-31.45803187-31.45707187L63.46522625 157.37259781c0-17.3335275 14.12258531-31.45611281 31.45803187-31.45611281l834.21008532 0c17.3335275 0 31.4273325 14.12258531 31.4273325 31.45611281l0 573.99706969L960.59041531 731.3696675 960.59041531 731.3696675z" p-id="10339"></path><path d="M481.42600906 307.24506406c0-7.986585-6.48136594-14.46986906-14.46986906-14.46986906-49.05058406 0-90.63646875-30.32599875-110.6302725-44.91099-4.602-3.35676375-8.2187475-5.9623575-10.7073-7.43783719-6.89004844-4.08011344-15.74292656-1.82372344-19.82399906 5.06344688-4.08011344 6.85743094-1.8246825 15.74196656 5.03658562 19.82304 1.93788656 1.18671562 4.80250406 3.26946375 8.44899188 5.96139843 22.45645406 16.37801531 69.1930875 50.46754312 127.67599593 50.46754313C474.94464312 321.71493312 481.42600906 315.23164906 481.42600906 307.24506406L481.42600906 307.24506406z" p-id="10340"></path><path d="M688.77023 240.42636687c-2.45977219 1.47547969-6.10530094 4.08107344-10.73608125 7.43783719-19.9669425 14.55525187-61.55186812 44.88412875-110.60341125 44.88412875-7.986585 0-14.46699094 6.48136594-14.46699094 14.46699094 0 7.986585 6.48040594 14.47082906 14.46699094 14.47082906 58.48578656 0 105.22050094-34.06266562 127.67791406-50.44068093 3.64552875-2.66219531 6.51110531-4.80442219 8.47873125-5.96139844 6.85839-4.07915437 9.11478-12.96465 5.03562563-19.82208094C704.51315562 238.57386313 695.62957906 236.31651312 688.77023 240.42636687L688.77023 240.42636687z" p-id="10341"></path><path d="M615.35408563 633.64360531l-97.3778175-43.69741312c-3.99569062-1.79302406-8.56699125-1.67790281-12.47442188 0.287805l-86.12080969 43.69837218c-7.146195 3.61866656-9.98299125 12.32764219-6.36528468 19.47575532 3.58604906 7.12125188 12.29790188 9.89760938 19.44505593 6.36624375l79.95603-40.56993375 91.04227313 40.86061687c1.91102437 0.86725219 3.96499219 1.27401656 5.93357719 1.27401656 5.49899156 0 10.79268281-3.15434156 13.1968125-8.53725187C625.915565 645.50788156 622.64514219 636.94280844 615.35408563 633.64360531L615.35408563 633.64360531z" p-id="10342"></path></svg>